<svg width="20" height="24" viewBox="0 0 20 24" fill="none" xmlns="http://www.w3.org/2000/svg">
<g filter="url(#filter0_d_534_3)">
<path d="M10.7833 9.99977L14.8333 5.94977C14.9243 5.84349 14.9719 5.70678 14.9665 5.56696C14.9611 5.42714 14.9031 5.29451 14.8042 5.19557C14.7052 5.09663 14.5726 5.03866 14.4328 5.03326C14.293 5.02786 14.1563 5.07542 14.05 5.16644L9.99998 9.21644L5.94998 5.16088C5.8437 5.06987 5.70699 5.02231 5.56717 5.02771C5.42735 5.03311 5.29472 5.09107 5.19577 5.19001C5.09683 5.28895 5.03887 5.42159 5.03347 5.56141C5.02807 5.70123 5.07563 5.83794 5.16664 5.94421L9.21664 9.99977L5.16109 14.0498C5.10293 14.0996 5.0557 14.1609 5.02235 14.2298C4.989 14.2987 4.97027 14.3738 4.96731 14.4503C4.96435 14.5268 4.97725 14.6031 5.00518 14.6744C5.03311 14.7457 5.07547 14.8104 5.12961 14.8646C5.18376 14.9187 5.2485 14.9611 5.3198 14.989C5.39109 15.0169 5.46738 15.0298 5.54389 15.0269C5.62041 15.0239 5.69548 15.0052 5.7644 14.9718C5.83333 14.9385 5.89462 14.8913 5.94442 14.8331L9.99998 10.7831L14.05 14.8331C14.1563 14.9241 14.293 14.9717 14.4328 14.9663C14.5726 14.9609 14.7052 14.9029 14.8042 14.804C14.9031 14.705 14.9611 14.5724 14.9665 14.4326C14.9719 14.2928 14.9243 14.156 14.8333 14.0498L10.7833 9.99977Z" fill="#5457B6"/>
</g>
<defs>
<filter id="filter0_d_534_3" x="-4" y="0" width="28" height="28" filterUnits="userSpaceOnUse" color-interpolation-filters="sRGB">
<feFlood flood-opacity="0" result="BackgroundImageFix"/>
<feColorMatrix in="SourceAlpha" type="matrix" values="0 0 0 0 0 0 0 0 0 0 0 0 0 0 0 0 0 0 127 0" result="hardAlpha"/>
<feOffset dy="4"/>
<feGaussianBlur stdDeviation="2"/>
<feComposite in2="hardAlpha" operator="out"/>
<feColorMatrix type="matrix" values="0 0 0 0 0 0 0 0 0 0 0 0 0 0 0 0 0 0 0.25 0"/>
<feBlend mode="normal" in2="BackgroundImageFix" result="effect1_dropShadow_534_3"/>
<feBlend mode="normal" in="SourceGraphic" in2="effect1_dropShadow_534_3" result="shape"/>
</filter>
</defs>
</svg>
